<?xml version="1.0" encoding="UTF-8"?>
<!DOCTYPE svg PUBLIC "-//W3C//DTD SVG 1.1//EN" "http://www.w3.org/Graphics/SVG/1.1/DTD/svg11.dtd">
<!-- Creator: CorelDRAW 2018 (64-Bit) -->
<svg xmlns="http://www.w3.org/2000/svg" xml:space="preserve" width="11in" height="8.5in" version="1.1" shape-rendering="geometricPrecision" text-rendering="geometricPrecision" image-rendering="optimizeQuality" fill-rule="evenodd" clip-rule="evenodd"
viewBox="0 0 11000 8500"
 xmlns:xlink="http://www.w3.org/1999/xlink">
 <g id="Layer_x0020_1">
  <metadata id="CorelCorpID_0Corel-Layer"/>
  <path fill="#00A859" fill-rule="nonzero" d="M1818.7 3715.51c0,196.57 -64.68,351.9 -194.03,465.46 -115.6,105.41 -264.81,157.87 -447.64,157.87 -210.83,0 -394.17,-75.37 -548.98,-226.62l-116.62 200.14 -95.23 0 -18.33 -814.81 125.79 -9.17c23.43,195.05 98.29,368.19 223.56,519.44 127.31,149.21 270.42,223.56 429.81,223.56 107.45,0 200.65,-36.67 280.6,-110 81.48,-73.84 122.22,-172.13 122.22,-295.37 0,-201.16 -90.65,-328.47 -271.44,-381.94l-379.4 -113.56c-325.93,-97.27 -488.89,-288.24 -488.89,-572.92 0,-190.97 53.47,-340.19 160.93,-447.64 103.38,-101.34 241.9,-152.27 414.54,-152.27 195.04,0 357.5,66.71 486.34,200.14l104.91 -182.31 95.23 0 30.05 758.29 -122.73 0c-35.65,-183.33 -107.45,-337.13 -214.4,-462.92 -111.53,-139.03 -235.79,-208.8 -373.29,-208.8 -97.27,0 -180.79,34.12 -250.56,101.34 -65.7,67.73 -98.29,158.38 -98.29,271.94 0,167.04 99.31,281.11 297.92,342.73l405.88 125.78c294.35,89.12 442.04,293.33 442.04,611.62z"/>
  <path id="1" fill="#373435" fill-rule="nonzero" d="M3301.66 4267.54l-415.05 26.99 0 -140.56c-81.48,123.24 -189.95,184.86 -324.91,184.86 -306.57,0 -459.86,-147.18 -459.86,-441.53l0 -709.91c0,-56.02 -8.66,-94.72 -26.99,-116.62 -19.86,-23.94 -54.49,-35.65 -104.4,-35.65l0 -104.4 415.05 -30.05 0 975.74c0,57.55 16.8,114.58 50.41,170.09 47.87,75.88 114.59,113.56 200.14,113.56 79.44,0 144.12,-40.74 194.03,-122.22 37.69,-63.66 56.53,-132.41 56.53,-206.25l0 -644.21c0,-101.85 -42.78,-152.27 -128.33,-152.27l0 -104.4 411.99 -30.05 0 1110.19c0,99.31 43.8,149.21 131.39,149.21l0 107.45z"/>
  <path id="2" fill="#373435" fill-rule="nonzero" d="M6336.34 2999.49c-56.02,0 -104.4,32.59 -146.16,98.29 -28.01,43.8 -61.11,120.19 -98.8,229.68l-334.07 964.03 -107.45 0 -408.94 -1113.24c-23.93,-67.73 -45.83,-112.55 -65.69,-134.44 -27.5,-27.5 -70.28,-41.76 -128.33,-41.76l0 -101.34 572.92 0 0 101.34c-73.33,0 -110,22.92 -110,68.75 0,17.82 11.71,60.6 35.65,128.33l238.84 647.78 196.57 -588.2c28.01,-77.41 41.76,-130.37 41.76,-157.87 0,-65.69 -54.49,-98.8 -163.98,-98.8l0 -101.34 477.69 0 0 98.8z"/>
  <path id="3" fill="#373435" fill-rule="nonzero" d="M7789.26 3936.02c-109.49,268.89 -289.26,402.83 -539.81,402.83 -183.33,0 -329.49,-64.68 -438.98,-193.52 -107.45,-127.31 -160.93,-294.86 -160.93,-501.62 0,-202.69 50.93,-374.81 152.27,-516.39 109.49,-150.74 255.65,-226.62 438.47,-226.62 173.15,0 310.14,76.9 411.99,229.68 89.12,137.5 133.93,306.57 133.93,507.22l-823.47 0c-6.11,141.57 21.9,266.85 83.52,376.34 61.62,115.09 144.12,173.15 248.01,173.15 174.68,0 310.14,-101.85 405.37,-304.54l89.63 53.47zm-322.36 -504.17c0,-119.17 -17.83,-215.93 -53.47,-289.26 -43.8,-81.48 -103.38,-122.22 -179.26,-122.22 -85.56,0 -152.27,59.58 -199.63,178.75 -41.76,99.31 -62.64,211.85 -62.64,337.13l361.06 0c55.51,0 89.12,-3.06 101.34,-8.66 21.9,-12.22 32.59,-43.8 32.59,-95.74z"/>
  <path id="4" fill="#373435" fill-rule="nonzero" d="M8723.24 4168.75l-414.54 -978.29c-32.08,-73.84 -59.58,-122.73 -83.52,-146.67 -32.08,-29.54 -79.95,-44.31 -143.61,-44.31l0 -101.85 635.56 0 0 101.85c-115.09,0 -172.64,24.44 -172.64,74.35 0,21.9 17.82,73.84 53.47,155.32l250.56 596.85 190.97 -531.16c34.12,-89.63 50.93,-154.3 50.93,-194.03 0,-67.73 -43.8,-101.34 -131.39,-101.34l-50.93 0 0 -101.85 516.39 0 0 101.85c-63.66,1.53 -114.07,24.44 -152.27,68.24 -23.93,30.05 -49.4,84.54 -77.41,164.49l-325.42 883.06c-158.89,431.85 -344.77,647.27 -557.64,647.27 -65.69,0 -121.71,-16.8 -167.55,-50.41 -53.47,-43.8 -80.46,-102.36 -80.46,-176.2 0,-49.91 14.26,-92.69 41.76,-128.33 30.05,-31.57 69.77,-47.87 119.68,-47.87 95.23,0 143.1,44.81 143.1,134.44 0,21.9 -6.11,43.8 -17.82,65.69 -10.19,25.97 -15.28,40.74 -15.28,44.81 0,19.86 10.19,29.54 30.05,30.05 65.69,-0.51 135.46,-53.98 208.8,-161.44 56.02,-81.48 101.34,-171.11 137.5,-268.38l11.71 -36.16z"/>
  <path id="5" fill="#0EB591" fill-rule="nonzero" d="M4715.87 3136.48c0,143.1 -58.56,214.91 -176.2,214.91 -51.43,0 -94.21,-15.79 -128.33,-47.87 -31.57,-35.65 -47.36,-76.39 -47.36,-122.22 0,-55.51 20.88,-105.42 62.64,-149.21 -131.39,25.97 -234.77,156.34 -310.65,391.11 -55.51,171.11 -83.52,333.06 -83.52,486.34l0 146.16c0,89.63 43.8,133.94 131.39,133.94l0 101.85 -534.21 0 0 -101.85c85.56,0 128.33,-44.31 128.33,-133.94l0 -832.64c0,-59.58 -13.75,-99.31 -41.76,-119.17 -17.82,-16.3 -52.45,-23.93 -104.4,-23.93l0 -107.45 420.65 -26.99 0 378.89c107.45,-282.64 250.56,-423.7 429.81,-423.7 73.84,0 134.44,21.9 181.81,65.69 47.87,41.76 71.8,98.29 71.8,170.09z"/>
  <path id="6" fill="none" fill-rule="nonzero" stroke="#373435" stroke-width="3" stroke-miterlimit="2.61313" d="M1818.7 3715.51c0,196.57 -64.68,351.9 -194.03,465.46 -115.6,105.41 -264.81,157.87 -447.64,157.87 -210.83,0 -394.17,-75.37 -548.98,-226.62l-116.62 200.14 -95.23 0 -18.33 -814.81 125.79 -9.17c23.43,195.05 98.29,368.19 223.56,519.44 127.31,149.21 270.42,223.56 429.81,223.56 107.45,0 200.65,-36.67 280.6,-110 81.48,-73.84 122.22,-172.13 122.22,-295.37 0,-201.16 -90.65,-328.47 -271.44,-381.94l-379.4 -113.56c-325.93,-97.27 -488.89,-288.24 -488.89,-572.92 0,-190.97 53.47,-340.19 160.93,-447.64 103.38,-101.34 241.9,-152.27 414.54,-152.27 195.04,0 357.5,66.71 486.34,200.14l104.91 -182.31 95.23 0 30.05 758.29 -122.73 0c-35.65,-183.33 -107.45,-337.13 -214.4,-462.92 -111.53,-139.03 -235.79,-208.8 -373.29,-208.8 -97.27,0 -180.79,34.12 -250.56,101.34 -65.7,67.73 -98.29,158.38 -98.29,271.94 0,167.04 99.31,281.11 297.92,342.73l405.88 125.78c294.35,89.12 442.04,293.33 442.04,611.62z"/>
  <path id="7" fill="none" fill-rule="nonzero" stroke="#373435" stroke-width="3" stroke-miterlimit="2.61313" d="M3301.66 4267.54l-415.05 26.99 0 -140.56c-81.48,123.24 -189.95,184.86 -324.91,184.86 -306.57,0 -459.86,-147.18 -459.86,-441.53l0 -709.91c0,-56.02 -8.66,-94.72 -26.99,-116.62 -19.86,-23.94 -54.49,-35.65 -104.4,-35.65l0 -104.4 415.05 -30.05 0 975.74c0,57.55 16.8,114.58 50.41,170.09 47.87,75.88 114.59,113.56 200.14,113.56 79.44,0 144.12,-40.74 194.03,-122.22 37.69,-63.66 56.53,-132.41 56.53,-206.25l0 -644.21c0,-101.85 -42.78,-152.27 -128.33,-152.27l0 -104.4 411.99 -30.05 0 1110.19c0,99.31 43.8,149.21 131.39,149.21l0 107.45z"/>
  <path id="8" fill="none" fill-rule="nonzero" stroke="#373435" stroke-width="3" stroke-miterlimit="2.61313" d="M6336.34 2999.49c-56.02,0 -104.4,32.59 -146.16,98.29 -28.01,43.8 -61.11,120.19 -98.8,229.68l-334.07 964.03 -107.45 0 -408.94 -1113.24c-23.93,-67.73 -45.83,-112.55 -65.69,-134.44 -27.5,-27.5 -70.28,-41.76 -128.33,-41.76l0 -101.34 572.92 0 0 101.34c-73.33,0 -110,22.92 -110,68.75 0,17.82 11.71,60.6 35.65,128.33l238.84 647.78 196.57 -588.2c28.01,-77.41 41.76,-130.37 41.76,-157.87 0,-65.69 -54.49,-98.8 -163.98,-98.8l0 -101.34 477.69 0 0 98.8z"/>
  <path id="9" fill="none" fill-rule="nonzero" stroke="#373435" stroke-width="3" stroke-miterlimit="2.61313" d="M7789.26 3936.02c-109.49,268.89 -289.26,402.83 -539.81,402.83 -183.33,0 -329.49,-64.68 -438.98,-193.52 -107.45,-127.31 -160.93,-294.86 -160.93,-501.62 0,-202.69 50.93,-374.81 152.27,-516.39 109.49,-150.74 255.65,-226.62 438.47,-226.62 173.15,0 310.14,76.9 411.99,229.68 89.12,137.5 133.93,306.57 133.93,507.22l-823.47 0c-6.11,141.57 21.9,266.85 83.52,376.34 61.62,115.09 144.12,173.15 248.01,173.15 174.68,0 310.14,-101.85 405.37,-304.54l89.63 53.47zm-322.36 -504.17c0,-119.17 -17.83,-215.93 -53.47,-289.26 -43.8,-81.48 -103.38,-122.22 -179.26,-122.22 -85.56,0 -152.27,59.58 -199.63,178.75 -41.76,99.31 -62.64,211.85 -62.64,337.13l361.06 0c55.51,0 89.12,-3.06 101.34,-8.66 21.9,-12.22 32.59,-43.8 32.59,-95.74z"/>
  <path id="10" fill="none" fill-rule="nonzero" stroke="#373435" stroke-width="3" stroke-miterlimit="2.61313" d="M8723.24 4168.75l-414.54 -978.29c-32.08,-73.84 -59.58,-122.73 -83.52,-146.67 -32.08,-29.54 -79.95,-44.31 -143.61,-44.31l0 -101.85 635.56 0 0 101.85c-115.09,0 -172.64,24.44 -172.64,74.35 0,21.9 17.82,73.84 53.47,155.32l250.56 596.85 190.97 -531.16c34.12,-89.63 50.93,-154.3 50.93,-194.03 0,-67.73 -43.8,-101.34 -131.39,-101.34l-50.93 0 0 -101.85 516.39 0 0 101.85c-63.66,1.53 -114.07,24.44 -152.27,68.24 -23.93,30.05 -49.4,84.54 -77.41,164.49l-325.42 883.06c-158.89,431.85 -344.77,647.27 -557.64,647.27 -65.69,0 -121.71,-16.8 -167.55,-50.41 -53.47,-43.8 -80.46,-102.36 -80.46,-176.2 0,-49.91 14.26,-92.69 41.76,-128.33 30.05,-31.57 69.77,-47.87 119.68,-47.87 95.23,0 143.1,44.81 143.1,134.44 0,21.9 -6.11,43.8 -17.82,65.69 -10.19,25.97 -15.28,40.74 -15.28,44.81 0,19.86 10.19,29.54 30.05,30.05 65.69,-0.51 135.46,-53.98 208.8,-161.44 56.02,-81.48 101.34,-171.11 137.5,-268.38l11.71 -36.16z"/>
  <path id="11" fill="none" fill-rule="nonzero" stroke="#373435" stroke-width="3" stroke-miterlimit="2.61313" d="M4715.87 3136.48c0,143.1 -58.56,214.91 -176.2,214.91 -51.43,0 -94.21,-15.79 -128.33,-47.87 -31.57,-35.65 -47.36,-76.39 -47.36,-122.22 0,-55.51 20.88,-105.42 62.64,-149.21 -131.39,25.97 -234.77,156.34 -310.65,391.11 -55.51,171.11 -83.52,333.06 -83.52,486.34l0 146.16c0,89.63 43.8,133.94 131.39,133.94l0 101.85 -534.21 0 0 -101.85c85.56,0 128.33,-44.31 128.33,-133.94l0 -832.64c0,-59.58 -13.75,-99.31 -41.76,-119.17 -17.82,-16.3 -52.45,-23.93 -104.4,-23.93l0 -107.45 420.65 -26.99 0 378.89c107.45,-282.64 250.56,-423.7 429.81,-423.7 73.84,0 134.44,21.9 181.81,65.69 47.87,41.76 71.8,98.29 71.8,170.09z"/>
  <path fill="#00A859" stroke="#373435" stroke-width="6.94" stroke-miterlimit="2.61313" d="M9321.54 1646.1c97.79,14.94 181.16,100.48 214.67,159.98 152.65,271.05 -101.2,571.31 -369.38,501.09 -312.58,-81.85 -355.78,-466.26 -93.08,-626.78 83.02,-50.73 157.04,-48.16 247.79,-34.29zm177.97 654.81c38.02,-37.91 65.52,-59.01 97.42,-112.91 206.66,-349.22 -159.45,-760.09 -534.84,-584.96 -285.51,133.2 -321.67,557.63 -31.39,728.96 48.16,28.43 111.86,49.32 163.84,54.69 90.35,9.34 115.23,-8.11 147.13,-6.17 7.14,11.72 7.75,19.96 19.85,28.06l25.24 10.47c4.76,-4.52 32.93,62.2 32.93,62.21 -15.38,47.99 -13.55,28.95 8.2,74.22l101.19 207.74c11.69,23.96 54.26,124.59 73.26,135.46 22.44,12.84 136.31,-54.73 136.35,-54.76 21.75,-21.27 -3.96,-56.5 -11.79,-72.88l-135 -276.93c-55.02,-115.03 -46.56,-31.43 -72.74,-87.41 -35.74,-76.43 -14.28,-33.63 -9.97,-69.87 1.74,-14.65 -6.28,-23.22 -9.68,-35.94z"/>
  <path fill="#FDFDFD" stroke="#373435" stroke-width="6.94" stroke-miterlimit="2.61313" d="M9322.32 1723.88c145.54,50.11 208.26,195.47 168.13,334.76 -20.42,70.87 -85.42,128.21 -131.72,152.43 -193.78,101.33 -440.7,-79.43 -370.58,-316.62 40.8,-137.98 204.91,-215.07 334.17,-170.57zm-0.78 -77.78c-90.75,-13.87 -164.77,-16.44 -247.79,34.29 -262.69,160.52 -219.5,544.93 93.08,626.78 268.18,70.23 522.02,-230.04 369.38,-501.09 -33.51,-59.5 -116.88,-145.04 -214.67,-159.98z"/>
  <path fill="#0EB591" stroke="#373435" stroke-width="6.94" stroke-miterlimit="2.61313" d="M9107.46 2065.88c20,6.43 54.07,14.4 76.35,19.04l-33.87 96.44c-30.92,-17.81 -49.17,-76.16 -42.48,-115.48zm76.47 127.02l32.65 -95.24 72.43 30.75c-21.85,35.98 -66.31,68.88 -105.08,64.48zm-77.6 -161.79c5.67,-31.69 5.56,-45.24 16.86,-78.15l89.31 31.72 4.24 1.54 -22.2 65.22 -88.21 -20.33zm144.6 -33.27l24.29 8.33 71.47 24.79c-8.41,24.27 -24.51,47.79 -34.41,71.25l-83.6 -39.16 12.35 -36.46 9.9 -28.76zm127.27 43.81l71.67 24.68c-19.29,48.93 -43.43,57.72 -65.92,89.63 -14.96,-14.2 -25.39,-20.93 -43.78,-35.1l32.74 -63.9 5.3 -15.31zm-361.48 -12.13c-6.08,-32.86 -9.93,-68.6 2.54,-111.47l69.58 24.13c-5.24,24.96 -10.93,56.65 -16.65,86.41 -20.4,-1.23 -37.58,-1.61 -55.47,0.94zm117.2 -109.91c13.76,-32.71 23.83,-68.27 42.44,-64.51 5.55,1.12 56.19,28.11 74.24,34.5l-21.91 62.64 -94.78 -32.63zm240.06 2.51l-15.42 74.83 -95.76 -33.13c6.05,-17.58 18.1,-45.99 18.56,-62.5l92.63 20.8zm34.68 1.87c21.47,3.46 39.57,1.51 55.47,-0.94 4.39,28.14 9.68,72.12 -2.58,109.33l-71.51 -24.75c11.18,-26.15 13.68,-55.72 18.62,-83.64zm-377.73 -39.84c15.31,-36.57 36.52,-67.53 64.85,-83.85l44.08 31.31c-11.2,15.24 -34.98,62.19 -36.54,77.5l-72.38 -24.95zm157.06 -61.12c28.49,-38.09 64.45,-65.05 108.82,-67.61l-35.04 100.65 -73.78 -33.04zm139.86 -57.08c33,20.9 50.41,75.3 45.47,121.65l-77.06 -20.2 31.59 -101.45zm-5.52 -42.07c-129.26,-44.5 -293.37,32.59 -334.17,170.57 -70.13,237.19 176.8,417.95 370.58,316.62 46.3,-24.21 111.3,-81.56 131.72,-152.43 40.13,-139.29 -22.59,-284.65 -168.13,-334.76z"/>
  <path fill="#FDFDFD" stroke="#373435" stroke-width="6.94" stroke-miterlimit="2.61313" d="M10268.93 1388.51c230.29,82.11 169.91,407.88 -51.5,421.93 -89.48,5.68 -194.14,-52 -211.69,-121.58 20.2,-13.39 189.28,-85.22 195.41,-103.01l53.96 -156.72 13.81 -40.61zm-294.5 288.85c-23.23,-30.2 -28.86,-106.59 -17.26,-148.07 6.02,-21.55 10.4,-16.59 30.22,-9.02 23.49,8.97 168.27,61.28 177.96,60.77 -6.67,11.72 -181.65,92.22 -190.92,96.32zm-20.75 -194.27c52.01,-132.71 199.6,-195.43 312.78,-148.83l-79.03 232.03 -233.75 -83.19zm-64.58 35.38c-29.8,152.57 66.07,312.4 229.7,350.61 155.09,36.22 323,-49.95 365.29,-231.06 35.62,-152.54 -55.43,-320.15 -236.34,-361.45 -148.59,-33.93 -323.61,62.47 -358.65,241.9z"/>
  <path fill="#00A859" stroke="#373435" stroke-width="6.94" stroke-miterlimit="2.61313" d="M8497.73 1434.98c-5.24,-11.41 -2.78,-15.46 5.29,-37.94 4.82,-13.46 9.46,-26.88 14.15,-40.39l58.78 -170.14c16.21,-45.39 26.44,-46.34 -19,-62.12 -44.89,-15.59 -34.05,-3.97 -77.8,124 -19.45,56.92 -39.13,113.78 -58.71,170.65 -30.96,-11.9 -21.59,7.55 18.76,-119.3 12.29,-38.63 39.13,-95.93 42.52,-130.73l-47.62 -19.07c-16.59,-2.08 -15.6,2.04 -17.29,3.25 -15.36,14.42 -66.22,181.32 -78.2,216.98 -21.76,-20.29 -17.87,-8.92 5.69,-78.06 9.15,-26.85 26.35,-66.07 29.32,-92.73 -16.23,-10.04 -38.31,-18.61 -57.79,-18.81l-39.19 88.79c-35.71,-65.1 -2.84,-186.42 69.8,-247.85 146.99,-124.32 383.02,-25.09 384.92,170.94 0.48,48.45 -10.52,96.09 -40.46,138.79 -18.89,26.94 -62.92,72.6 -97.03,79.38l103.69 -301.17 -64.8 -23.04c-16,26.85 -89.91,253.7 -111.35,317.1 -9.79,28.94 -3.46,24.36 -23.67,31.46zm-242.78 -298.84c-60.7,338.37 387.92,437.39 485.12,126.75 37.76,-120.69 -41.62,-271.97 -179.99,-306.89 -142.72,-36.02 -284.85,67.13 -305.13,180.14z"/>
  <path fill="#FDFDFD" stroke="#373435" stroke-width="6.94" stroke-miterlimit="2.61313" d="M8497.73 1434.98c20.21,-7.1 13.88,-2.52 23.67,-31.46 21.44,-63.4 95.35,-290.25 111.35,-317.1l64.8 23.04 -103.69 301.17c34.11,-6.78 78.14,-52.44 97.03,-79.38 29.94,-42.7 40.94,-90.34 40.46,-138.79 -1.91,-196.03 -237.93,-295.26 -384.92,-170.94 -72.64,61.44 -105.51,182.75 -69.8,247.85l39.19 -88.79c19.48,0.2 41.56,8.78 57.79,18.81 -2.98,26.66 -20.17,65.88 -29.32,92.73 -23.57,69.14 -27.46,57.77 -5.69,78.06 11.98,-35.65 62.84,-202.56 78.2,-216.98 1.69,-1.21 0.7,-5.33 17.29,-3.25l47.62 19.07c-3.39,34.8 -30.22,92.09 -42.52,130.73 -40.35,126.85 -49.72,107.4 -18.76,119.3 19.58,-56.87 39.26,-113.74 58.71,-170.65 43.74,-127.97 32.91,-139.59 77.8,-124 45.45,15.78 35.22,16.72 19,62.12l-58.78 170.14c-4.69,13.52 -9.33,26.93 -14.15,40.39 -8.06,22.49 -10.53,26.53 -5.29,37.94z"/>
  <path fill="#FDFDFD" stroke="#373435" stroke-width="6.94" stroke-miterlimit="2.61313" d="M10536.75 2197.12c0.79,5.23 1.52,2.41 -1.1,10.63 -3.66,11.47 -9.53,10.03 -12.39,23.12 -3.62,16.61 5.36,19.85 -18.73,29.91 -27.41,11.44 -68.22,-3.99 -86.36,-24.19 -28.82,-32.1 4.13,-54.63 38.87,-49.92 16.68,2.26 34.71,13.97 46.17,15.6 14.8,2.1 29.57,-5.12 33.54,-5.16zm-49.22 -16.71c-16.36,-5.74 -21.3,-4.21 -24.94,-21.71 -3.31,-15.97 -2.24,-21.67 8.67,-33.87 0.76,-0.85 1.79,-1.74 2.59,-2.55 0.79,-0.8 1.84,-1.67 2.65,-2.43l25.18 -24.84c60.54,-75.35 159.43,-24.93 171.83,39.3l-3.43 91.91c-12.1,12.23 -15.24,7.76 -25,10.09 -24.5,5.84 -14.31,18.16 -42.19,27.76 -17.23,5.93 -56.46,8.82 -68.26,-9.81 19.52,-21.74 65.43,35.21 95.6,-25.16 13.61,-27.23 8.45,-37.27 28.4,-64.19 35.7,-48.15 -52.68,-116.07 -112.5,-93.5 -15.61,5.89 -33.92,15.63 -38.87,38.72 -6.13,28.63 -9.96,41.75 -19.73,70.28zm232.83 85.05c30.15,-46.35 29.15,-103.35 16.05,-143.42 -50.45,-154.23 -249.7,-163.56 -323,-40.58 -57.31,96.15 -15.41,205.79 58.85,247.7 56.06,31.64 104.36,31.31 148.65,17.57 41.17,-12.78 68.67,-33.93 99.46,-81.27z"/>
  <path fill="#00A859" stroke="#373435" stroke-width="6.94" stroke-miterlimit="2.61313" d="M9146.44 1202.29l304.22 104.79c-36.17,25.53 -115.51,30.91 -173.86,10.78 -55.98,-19.31 -120.08,-74.2 -130.36,-115.57zm333.46 85.68c0.56,-20.25 7.83,-82.39 -4.02,-97.37l-277.64 -95.53c-13.84,-1.6 -12.43,5.87 -32.83,32.8 -11.7,15.45 -21.17,28.44 -31.63,41.63 -8.17,-11.78 -6.9,-9.72 -10.31,-26.44 -6.01,-29.38 -6.67,-66.46 1.53,-97.86 35.93,-137.59 168.52,-216.6 303.67,-168.43 168.94,60.21 201.06,256.59 101.11,371.78 -13.17,15.18 -29.64,34.37 -49.88,39.43zm-213.26 44.84c135.52,46.66 275.95,-23.03 323.14,-152.75 47.69,-131.09 -28.91,-274.46 -152.17,-319.21 -127.26,-46.2 -271.5,19.21 -319.6,146.56 -49.2,130.26 19.71,281.01 148.63,325.4z"/>
  <path fill="#FDFDFD" stroke="#373435" stroke-width="6.94" stroke-miterlimit="2.61313" d="M7857.05 1660.28c5.97,-17.33 53.59,5.19 87.89,16.46 4.99,14.27 1.97,22.57 11.62,28.04l105.65 38.47 -10.98 34.15 36.93 14.17 -73.25 132.49 -220.49 -77.28 62.65 -186.5zm259.8 209.66c57.02,-95.8 3.03,-210.64 -79.33,-253.88 -99.24,-52.1 -207.37,-8 -254.69,75.63 -101.74,179.81 123.11,370.96 287.32,238.57 24.97,-20.13 28.46,-29.69 46.7,-60.33z"/>
  <path fill="#FDFDFD" stroke="#373435" stroke-width="6.94" stroke-miterlimit="2.61313" d="M9206.12 1086.75c-18.78,-6.46 3.74,-40.58 10.66,-60.03 59.8,-168.07 0.11,-159.63 224,-83.29 111.31,37.96 115.67,28.49 95.26,87.84l-53.56 150.66 -276.35 -95.19zm273.79 201.22c20.24,-5.06 36.71,-24.25 49.88,-39.43 99.94,-115.2 67.82,-311.57 -101.11,-371.78 -135.16,-48.17 -267.75,30.84 -303.67,168.43 -8.2,31.4 -7.54,68.48 -1.53,97.86 3.42,16.72 2.15,14.66 10.31,26.44 10.45,-13.19 19.93,-26.18 31.63,-41.63 20.4,-26.93 18.99,-34.4 32.83,-32.8l277.64 95.53c11.85,14.99 4.58,77.12 4.02,97.37z"/>
  <path fill="#FDFDFD" stroke="#373435" stroke-width="6.94" stroke-miterlimit="2.61313" d="M10056.81 1707.67c41.12,33.91 71.58,69.19 147.32,66.74 189.23,-6.11 235.56,-256.61 86.86,-334.34l-55.35 163.09c-8.66,21.71 -14.96,20.62 -30.94,27.94 -21.96,10.06 -130.68,58.48 -147.89,76.57z"/>
  <path fill="#FDFDFD" stroke="#373435" stroke-width="6.94" stroke-miterlimit="2.61313" d="M9811.1 871.95c32.72,-1.86 82.39,-42.89 117.77,-51.12l37.77 82.07 104.76 -49.23 -9.87 -25.98 45.29 14.64 -13.69 42.7c-15.21,-6.11 -1.92,-5.75 -20.04,-21.96 -27.93,24.01 -80.05,36.45 -110.86,56.99 -15.81,-23.86 -26.8,-62.66 -44.07,-82.98l-101.94 48.03c-4.6,23.21 -1.66,35.92 7.17,52.3 13.08,-39.26 10.76,-57.4 65.55,-74.74l-30.56 89.52c-11.29,31.33 -16.82,31.07 5.46,46.74l50.17 -147.5c40.38,53.97 17.67,74.47 -17,173.8 26.64,8.99 13.33,22.83 48.2,-78.45 6.59,-19.14 3.62,-9.08 28.2,-19.15 9.12,-3.74 14.57,-7.43 21.81,-12.49 -8.63,36.08 -29.42,82.6 -35.52,106.93l-1.67 19.22c26.19,-1.54 21.04,-12.74 42.42,-75.5 14.18,-41.61 14.45,-61.79 41.62,-73.14 11.09,-4.63 18.39,-10.15 29.67,-11.11l-50.92 147.76c47.94,-6.65 82.19,-60.29 96.98,-103.24 41.94,-121.8 -115.65,-249.87 -235.05,-169.06 -42.33,28.64 -51.5,54.89 -71.64,114.95z"/>
  <path fill="#FDFDFD" stroke="#373435" stroke-width="6.94" stroke-miterlimit="2.61313" d="M8381.94 2286.76c4.31,-12.5 13.41,-43.53 18.74,-53.41 9.7,-18 16.79,-15.46 37.85,-8.21 25.56,8.79 159.76,50.72 170.82,62.52 10.48,11.18 0.46,9.55 14.18,22.76 10.27,9.89 37.06,27.84 32.03,63.27 -8.04,56.75 -66.1,6.38 -96.15,94.39 -22.36,65.49 -25.97,111.56 -63.22,98.75l-98.46 -34.08c-87.33,-29.8 -92.7,-22.55 -75.92,-71.35l60.13 -174.63zm265.04 196.44c59.34,-97.39 4.43,-222.13 -82.06,-266.85 -103.77,-53.66 -223.7,-7.52 -267.22,81.4 -83.82,171.24 72.17,336.98 241.99,280.98 48.55,-16.01 76.01,-44.19 107.29,-95.52z"/>
  <path fill="#0EB591" stroke="#373435" stroke-width="6.94" stroke-miterlimit="2.61313" d="M8583.65 2329.21c-0.81,47.05 15.79,47.91 31.11,67.76 -15.85,9.2 -29.27,20.19 -49.56,-1.95 -8.43,-9.19 -18.41,-31.06 -12.11,-49.33 4.79,-13.91 19.33,-15.01 30.56,-16.48zm-23.98 109.05l-21.62 61.72c-94.27,-32.47 -58.26,-10.08 -85.17,38.7 -23.41,-2.8 -53.59,-16.55 -78.65,-25.06 -65.69,-22.3 -59.74,2.52 -5.32,-156.22l27.53 -80.53 153.39 52.98c-28.67,19.39 -69.89,35.33 -102.91,51.44 -58.81,28.68 -46.86,16.29 -90.43,84.31 -19.21,30 1.24,22.53 31.74,25.57 99.35,9.93 64.53,-15.2 171.45,-52.92zm-177.74 -151.5l-60.13 174.63c-16.79,48.8 -11.41,41.55 75.92,71.35l98.46 34.08c37.25,12.81 40.86,-33.26 63.22,-98.75 30.05,-88.01 88.11,-37.63 96.15,-94.39 5.02,-35.43 -21.76,-53.37 -32.03,-63.27 -13.72,-13.22 -3.7,-11.59 -14.18,-22.76 -11.06,-11.8 -145.26,-53.72 -170.82,-62.52 -21.06,-7.25 -28.15,-9.79 -37.85,8.21 -5.33,9.88 -14.43,40.91 -18.74,53.41z"/>
  <path fill="#00A859" stroke="#373435" stroke-width="6.94" stroke-miterlimit="2.61313" d="M7857.05 1660.28l-62.65 186.5 220.49 77.28 73.25 -132.49 -36.93 -14.17 10.98 -34.15 -105.65 -38.47c-9.65,-5.46 -6.63,-13.76 -11.62,-28.04 -34.3,-11.27 -81.92,-33.79 -87.89,-16.46z"/>
  <path fill="#00A859" stroke="#373435" stroke-width="6.94" stroke-miterlimit="2.61313" d="M9953.69 1483.09l233.75 83.19 79.03 -232.03c-113.18,-46.59 -260.77,16.13 -312.78,148.83z"/>
  <path fill="#00A859" stroke="#373435" stroke-width="6.94" stroke-miterlimit="2.61313" d="M10142.05 2245.26c-5.24,15.22 -11.65,31.28 -16.56,46.31 -3.28,10.06 -4.1,11.19 -3.51,19.18 0.07,0.94 0.43,2.28 0.57,3.19 0.15,0.9 0.64,2.26 0.84,3.11 8.6,36.46 1.73,-25.19 3.07,9.4l-27.98 28.19c-13.89,5.82 -10.76,-3.3 -10.76,-3.31 -4.18,-8.34 0.8,-15.72 3.79,-26.36l-39.94 -12.99c6.83,-18.77 40.75,-52.9 58.35,-65.65 15.83,-11.47 6.97,-9.26 32.14,-1.07zm-122.83 -30.87c20.53,-21.29 59.35,5.98 51.24,38.53 -7.54,30.24 -40.07,42.5 -57.01,54.1 40.06,16.02 31.39,9.94 32.05,19.09 1.83,25.19 -7.78,8.94 -7.83,8.95 -9.34,2.39 -47.28,-12.88 -58.43,-16.72 12.19,-31.76 32.32,-27.64 55.66,-51.2 28.13,-28.41 3.23,-35.92 -2.95,-39.08 -17.85,-9.11 -11.63,10.08 -12.74,-13.67zm116.62 157.87c14.65,-17.55 100.38,-70.38 122.06,-82.1 -13.26,-50.37 -46.48,-113.2 -126.99,-123.05 -163.79,-20.03 -230.79,185.18 -121.04,249.91 64.69,38.15 146.2,5.69 164.39,-32.2l-38.42 -12.56z"/>
  <path fill="#00A859" stroke="#373435" stroke-width="6.94" stroke-miterlimit="2.61313" d="M10056.81 1707.67c17.21,-18.09 125.93,-66.52 147.89,-76.57 15.98,-7.32 22.28,-6.23 30.94,-27.94l55.35 -163.09c148.7,77.73 102.37,328.22 -86.86,334.34 -75.74,2.44 -106.2,-32.83 -147.32,-66.74zm198.3 -278.55l-53.96 156.72c-6.13,17.79 -175.2,89.62 -195.41,103.01 17.55,69.58 122.2,127.26 211.69,121.58 221.41,-14.04 281.78,-339.82 51.5,-421.93l-13.81 40.61z"/>
  <path fill="#00A859" stroke="#373435" stroke-width="6.94" stroke-miterlimit="2.61313" d="M9889.1 1518.47c35.04,-179.43 210.05,-275.83 358.65,-241.9 180.92,41.3 271.96,208.91 236.34,361.45 -42.29,181.11 -210.19,267.28 -365.29,231.06 -163.63,-38.22 -259.5,-198.05 -229.7,-350.61zm362.62 -260.93c-105.76,-15.96 -165.53,-1.4 -235.38,41.33 -62.06,37.96 -129.89,112.13 -148.01,214.8 -48.09,272.41 234.53,484.06 491.38,335.78 144.96,-83.69 200.22,-289.15 103.4,-447.39 -37.68,-61.6 -112.59,-129.6 -211.39,-144.51z"/>
  <path fill="#00A859" stroke="#373435" stroke-width="6.94" stroke-miterlimit="2.61313" d="M9811.1 871.95c20.14,-60.06 29.31,-86.31 71.64,-114.95 119.41,-80.8 276.99,47.26 235.05,169.06 -14.79,42.96 -49.04,96.6 -96.98,103.24l50.92 -147.76c-11.28,0.95 -18.57,6.47 -29.67,11.11 -27.17,11.35 -27.44,31.53 -41.62,73.14 -21.38,62.76 -16.23,73.96 -42.42,75.5l1.67 -19.22c6.1,-24.33 26.89,-70.85 35.52,-106.93 -7.24,5.06 -12.69,8.75 -21.81,12.49 -24.59,10.06 -21.61,0.01 -28.2,19.15 -34.87,101.28 -21.57,87.44 -48.2,78.45 34.67,-99.33 57.37,-119.83 17,-173.8l-50.17 147.5c-22.28,-15.67 -16.74,-15.41 -5.46,-46.74l30.56 -89.52c-54.79,17.34 -52.46,35.48 -65.55,74.74 -8.83,-16.38 -11.78,-29.09 -7.17,-52.3l101.94 -48.03c17.27,20.33 28.26,59.13 44.07,82.98 30.81,-20.54 82.93,-32.98 110.86,-56.99 18.13,16.21 4.83,15.85 20.04,21.96l13.69 -42.7 -45.29 -14.64 9.87 25.98 -104.76 49.23 -37.77 -82.07c-35.38,8.23 -85.05,49.26 -117.77,51.12zm237.46 -130l-53.71 -18.49 -59.88 2.97c-57.77,10.85 -104.17,53.04 -123.62,114.32 -18.73,58.98 0.38,121.96 39.04,160.17 20.52,20.28 28.31,16.3 31.18,37.12l0 7.02c18.27,-28.17 4.57,-3.14 65.84,4.56 61.4,7.72 122.94,-20.49 159.44,-77.8 45.9,-72.07 26.58,-162.14 -42.85,-217.06 -1.24,-0.98 -5.01,-3.86 -6.21,-4.84l-9.24 -7.96z"/>
  <path fill="#FDFDFD" stroke="#373435" stroke-width="6.94" stroke-miterlimit="2.61313" d="M9328.65 1015.5c5.64,-21.57 -18.68,-9.02 -0.7,-27.54 13.35,-13.76 4.42,0.7 26.64,1.69 14.07,-16.02 2.94,-22.57 19.27,-24.36 27.03,-2.96 -3.98,9.87 22.7,17.66 20.2,5.89 18.01,-15.96 28.13,1.14 10.61,17.92 -3.09,9.64 1.36,33.55 15.82,3.48 24.48,-1.6 21.4,15.02 -4.8,25.92 -6.66,-4.45 -17.04,18.17 -11.23,24.46 7.91,1.23 2.02,25.26 -6.94,28.36 -15.37,-4.63 -31.61,7.33 -13.28,9.78 -0.09,2.11 -9.21,12.35 -25.46,28.57 -10.8,-12.33 -35.87,-12.33 -20.89,0 6.36,15.3 -27.89,0.74 -1.94,-15.26 5.21,-7.91 3.92,-28.7 -16.04,-11.53 -24.98,2.44 -21.76,-17.98 3.96,-25.07 11.92,3.69 18.63,-21.99zm-52.74 -73.79l-45.83 129.36 234.17 80.67 52.36 -152.07 -234.14 -80.57 -6.56 22.61z"/>
  <path fill="#00A859" stroke="#373435" stroke-width="6.94" stroke-miterlimit="2.61313" d="M9282.47 919.1l234.14 80.57 -52.36 152.07 -234.17 -80.67 45.83 -129.36 6.56 -22.61zm-76.35 167.65l276.35 95.19 53.56 -150.66c20.42,-59.35 16.05,-49.88 -95.26,-87.84 -223.88,-76.35 -164.2,-84.78 -224,83.29 -6.92,19.45 -29.44,53.56 -10.66,60.03z"/>
  <path fill="#FDFDFD" stroke="#373435" stroke-width="6.94" stroke-miterlimit="2.61313" d="M8788.72 684.31c-11.01,-18.85 -10.11,-72.85 -12.22,-99.29 -1.15,-14.4 -5.48,-40.15 -4.1,-50.19 3.07,-22.38 20.04,-19.61 38.47,-20.76 11.13,-0.69 41.85,-2.14 50.07,2.27 21.89,11.74 1.48,143.96 -1.49,152.07 -16.28,5.5 -55.13,19.14 -70.73,15.89zm-72.34 -125.56c-49.85,144.81 160.62,207.83 206.02,75.94 49.33,-143.29 -160.03,-209.52 -206.02,-75.94z"/>
  <path fill="#00A859" stroke="#373435" stroke-width="6.94" stroke-miterlimit="2.61313" d="M8832.74 2175.14c-37.88,-78.99 -58.41,-161.35 -47.18,-256.43 8.09,-68.48 29.04,-79.32 5.58,-92.21 -12.86,1.43 -5.91,-2.4 -11.95,10.35l-11.31 56.88 -12.96 2.32c-11.96,3.61 -0.04,-4.94 -6.44,3.5 34.61,-1.72 0.46,35.59 22.48,160.22 14.54,82.26 37.02,100.18 54.47,149.27 -16.07,14.99 -40.57,21.16 -62.91,32.58 -20.05,10.26 -43.78,25.75 -64.72,30.54 -18.79,-17.55 -32.49,-62.32 -101.75,-101.06 -48.82,-27.31 -39.27,-16.57 -44.95,-11.44 2.04,20.91 -2.85,2.22 41.8,28.31 15.2,8.88 27.96,18 39.69,29.15 20.76,19.74 43.1,49.75 53.28,70.63 17.64,36.15 27.53,90.76 21.25,134.87 -8.62,60.54 -18.93,35.83 -3.26,50.15 12.51,-2.11 8.1,4.84 14.17,-17.75 23.31,-86.74 -10.08,-140.09 -17.48,-173.44l130.27 -61.2c16.45,15.91 30.55,42.55 48.35,62.8 18.5,21.04 35.94,39.47 58.09,57.21 44.83,35.93 97.12,66.66 162.58,88.31l4.87 -18.32c-6.79,-6.65 -78.11,-35.02 -95.9,-45.51 -77.5,-45.71 -139.99,-114.48 -176.08,-189.75z"/>
  <path fill="#FDFDFD" stroke="#373435" stroke-width="6.94" stroke-miterlimit="2.61313" d="M8559.67 2438.26c-106.92,37.72 -72.1,62.85 -171.45,52.92 -30.5,-3.04 -50.95,4.43 -31.74,-25.57 43.57,-68.02 31.62,-55.63 90.43,-84.31 33.02,-16.11 74.25,-32.05 102.91,-51.44l-153.39 -52.98 -27.53 80.53c-54.42,158.75 -60.37,133.93 5.32,156.22 25.06,8.51 55.24,22.26 78.65,25.06 26.91,-48.79 -9.1,-71.18 85.17,-38.7l21.62 -61.72z"/>
  <path fill="#00A859" stroke="#373435" stroke-width="6.94" stroke-miterlimit="2.61313" d="M8789.38 1249.93c13.04,-76.8 -4.56,-152.89 -38.68,-201.03 -17.62,13.06 -2.44,24.25 6.29,45.35 6.88,16.62 12.19,32.27 15.98,51.68 24.64,126.28 -43.76,248.66 -144.73,301.09 -104.75,54.39 -235.15,41.26 -327.58,-48.46 -47.37,-45.97 -41.62,-77.44 -66.33,-71.83 0.33,56.13 174.37,230.57 373.67,147.67 19.11,-7.96 33.67,-18.72 52.45,-24.74 36.26,22.98 86.06,71.25 119.15,99.72 40.02,34.43 72.92,63.44 113.69,96.51 -15.23,17.37 -57.05,66.99 -65.38,92 28.5,12.57 22.51,-1.04 41.02,-27.17 11.41,-16.11 21,-29.25 34.22,-44.31 18.55,-21.13 64.76,-62.36 73.94,-76.86l-10 -12.16 -67.96 63.7 -231.73 -197.1c49.89,-52.26 103.19,-83.32 121.99,-194.04z"/>
  <path fill="#00A859" stroke="#373435" stroke-width="6.94" stroke-miterlimit="2.61313" d="M8646.98 2483.19c-31.28,51.33 -58.74,79.51 -107.29,95.52 -169.82,56 -325.81,-109.74 -241.99,-280.98 43.52,-88.92 163.45,-135.06 267.22,-81.4 86.49,44.73 141.39,169.46 82.06,266.85zm-278.89 99.31l67.28 23.17 24.25 0.04c244.96,10.53 316.91,-328.94 86.07,-416.52 -212.7,-80.7 -413.17,213.44 -193.02,380.39l12.37 10.15c1,-0.83 2.11,1.78 3.05,2.78z"/>
  <path fill="#00A859" stroke="#373435" stroke-width="6.94" stroke-miterlimit="2.61313" d="M9974.43 1677.36c9.26,-4.09 184.25,-84.6 190.92,-96.32 -9.69,0.5 -154.47,-51.8 -177.96,-60.77 -19.82,-7.57 -24.2,-12.52 -30.22,9.02 -11.6,41.48 -5.97,117.87 17.26,148.07z"/>
  <path fill="#00A859" stroke="#373435" stroke-width="6.94" stroke-miterlimit="2.61313" d="M10254.03 2305.45c-23.6,9.26 -74.76,46.92 -99.56,63.72l34.03 11.34c-20.52,39.84 -65.27,60.44 -105.05,63.24 -69.74,4.92 -97.45,-38.01 -118.42,-51.28 24.23,47.04 77.71,90.85 147.9,89.75 72.63,-1.13 99.52,-35.78 133.72,-71.03 7.1,-7.33 4.89,-4.89 8.8,-8.02l34.15 13.1c2.72,-16.05 -27.43,-92.54 -35.57,-110.82z"/>
  <path fill="#00A859" stroke="#373435" stroke-width="6.94" stroke-miterlimit="2.61313" d="M9722.39 2017.02c0.58,-38.56 4.79,-82.1 -6.77,-113.45l-18.47 4.59c5.49,48.04 8.48,89.39 -0.46,143.68 -6.61,40.09 -26.93,125.57 -53.27,157.85l249.77 85.96c-12.09,110.87 73.23,215.88 143.89,223.06l3.83 -8.9c-12.91,-9.73 -37.6,-19.41 -53.2,-30.08 -99.38,-67.98 -126.98,-243.77 24.4,-335.97l-4.05 -12.83c-45.86,16.72 -104.38,81.98 -113.26,155.64l-226.09 -77.67c36.33,-65.23 37.89,-113.11 52.79,-177.18l20.15 -5.57 -19.24 -9.14z"/>
  <path fill="#FDFDFD" stroke="#373435" stroke-width="6.94" stroke-miterlimit="2.61313" d="M9146.44 1202.29c10.28,41.38 74.38,96.27 130.36,115.57 58.35,20.13 137.69,14.75 173.86,-10.78l-304.22 -104.79z"/>
  <path fill="#00A859" stroke="#373435" stroke-width="6.94" stroke-miterlimit="2.61313" d="M9184.64 1326.01c-4.25,17.72 1.5,19.72 50.12,41.59 35.24,15.85 57.6,16.29 67.91,21.04 8.05,3.7 4.71,1.59 9.25,6.24 1.05,20.07 -9.01,89.91 -14.51,102.7 -126.06,-7.34 -103.74,5.27 -166.33,10.87 -21.64,1.93 -7.27,4.3 -21.38,-6.67 0.99,17.29 -17.43,17.5 -33.48,23.05 -17.46,6.03 -33.56,7.9 -44.39,24.15l7.08 11.45c51.54,-12.62 64.13,-32.45 156.9,-42.02 81.17,-8.37 136.2,4.13 219.17,31l8.31 -19.79c-33.59,-14.09 -99.19,-24.39 -115.25,-33.4l13.17 -107.58c58.66,13.41 171.82,-22.23 182.87,-40.92 29.85,-50.47 -89.54,71.98 -250.71,8.94 -19.64,-7.69 -59.44,-32.59 -68.72,-30.66z"/>
  <path fill="#0EB591" stroke="#373435" stroke-width="6.94" stroke-miterlimit="2.61313" d="M9354.59 989.65c-22.22,-0.99 -13.29,-15.45 -26.64,-1.69 -17.98,18.52 6.34,5.97 0.7,27.54 -6.71,25.68 -14.67,-3.09 -18.63,21.99 -3.22,20.41 5.72,6.44 21.76,17.98 1.29,20.79 -5.86,13.44 -3.92,28.7 34.25,14.56 7,-0.74 27.89,-0.74 25.07,0 10.41,40.91 35.87,12.33 9.12,-10.24 -4.07,-2.56 9.21,-12.35 16.24,-11.96 24.67,21.03 31.61,-7.33 5.89,-24.03 -13.25,-0.8 -2.02,-25.26 10.38,-22.62 12.24,7.75 17.04,-18.17 3.08,-16.62 -5.58,-11.55 -21.4,-15.02 -4.45,-23.91 9.25,-15.63 -1.36,-33.55 -10.12,-17.11 -7.93,4.75 -28.13,-1.14 -26.68,-7.79 4.33,-20.62 -22.7,-17.66 -16.32,1.79 -5.19,8.34 -19.27,24.36z"/>
  <path fill="#00A859" stroke="#373435" stroke-width="6.94" stroke-miterlimit="2.61313" d="M10720.36 2265.46c-30.79,47.34 -58.29,68.49 -99.46,81.27 -44.29,13.75 -92.59,14.07 -148.65,-17.57 -74.26,-41.91 -116.16,-151.55 -58.85,-247.7 73.3,-122.98 272.55,-113.65 323,40.58 13.1,40.07 14.1,97.06 -16.05,143.42zm-333.54 -142.4c-10.38,6.83 -1.21,5.95 -21.35,5.73 8.82,9.25 2.83,5.93 17.65,4.99 -25.33,88.61 35.87,203.34 135.89,225.45 250.19,55.3 326.81,-306.76 92.92,-365.85 -127.07,-32.1 -228.55,84.85 -225.12,129.68z"/>
  <path fill="#00A859" stroke="#373435" stroke-width="6.94" stroke-miterlimit="2.61313" d="M8116.85 1869.93c-18.24,30.64 -21.73,40.2 -46.7,60.33 -164.21,132.39 -389.06,-58.76 -287.32,-238.57 47.32,-83.63 155.44,-127.73 254.69,-75.63 82.36,43.24 136.35,158.08 79.33,253.88zm45.17 -53.17c-30.12,-15.51 -6.45,-4.56 -18.59,-72.72 -12.15,-68.25 -73.37,-140.32 -154.25,-155.48 -97.63,-18.31 -213.77,38.07 -235.65,159.51 -44.33,246.09 326.57,339.93 392.1,69.57l16.39 -0.87z"/>
  <path fill="#0EB591" stroke="#373435" stroke-width="6.94" stroke-miterlimit="2.61313" d="M8786.84 532.11c10.13,-3.28 58.1,-11.06 67.84,-2.47 10.51,9.27 2.17,57.29 -3.88,67.33 -10.67,3.9 -45.79,10.49 -59.5,7.13 -6.38,-16.86 -9.2,-51.08 -4.46,-71.98zm1.88 152.19c15.6,3.25 54.46,-10.39 70.73,-15.89 2.97,-8.11 23.38,-140.33 1.49,-152.07 -8.22,-4.41 -38.94,-2.96 -50.07,-2.27 -18.43,1.15 -35.4,-1.62 -38.47,20.76 -1.38,10.04 2.95,35.79 4.1,50.19 2.11,26.44 1.2,80.44 12.22,99.29z"/>
  <path fill="#00A859" stroke="#373435" stroke-width="6.94" stroke-miterlimit="2.61313" d="M10487.53 2180.41c9.77,-28.53 13.6,-41.65 19.73,-70.28 4.95,-23.09 23.26,-32.84 38.87,-38.72 59.82,-22.56 148.2,45.36 112.5,93.5 -19.95,26.92 -14.8,36.95 -28.4,64.19 -30.17,60.37 -76.08,3.43 -95.6,25.16 11.8,18.63 51.03,15.74 68.26,9.81 27.88,-9.6 17.7,-21.92 42.19,-27.76 9.76,-2.33 12.89,2.14 25,-10.09l3.43 -91.91c-12.4,-64.23 -111.29,-114.65 -171.83,-39.3l-25.18 24.84c-0.81,0.76 -1.86,1.64 -2.65,2.43 -0.8,0.81 -1.83,1.7 -2.59,2.55 -10.91,12.2 -11.98,17.9 -8.67,33.87 3.64,17.5 8.58,15.97 24.94,21.71z"/>
  <path fill="#00A859" stroke="#373435" stroke-width="6.94" stroke-miterlimit="2.61313" d="M10536.75 2197.12c-3.96,0.04 -18.73,7.26 -33.54,5.16 -11.46,-1.63 -29.5,-13.34 -46.17,-15.6 -34.74,-4.71 -67.69,17.81 -38.87,49.92 18.13,20.2 58.95,35.63 86.36,24.19 24.09,-10.06 15.11,-13.3 18.73,-29.91 2.85,-13.09 8.72,-11.65 12.39,-23.12 2.63,-8.23 1.89,-5.4 1.1,-10.63z"/>
  <path fill="#FDFDFD" stroke="#373435" stroke-width="6.94" stroke-miterlimit="2.61313" d="M9241.03 2026.59l-12.35 36.46 83.6 39.16c9.9,-23.46 26.01,-46.98 34.41,-71.25l-71.47 -24.79 -24.29 -8.33 -9.9 28.76z"/>
  <path fill="#FDFDFD" stroke="#373435" stroke-width="6.94" stroke-miterlimit="2.61313" d="M9106.33 2031.11l88.21 20.33 22.2 -65.22 -4.24 -1.54 -89.31 -31.72c-11.3,32.91 -11.19,46.46 -16.86,78.15z"/>
  <path fill="#FDFDFD" stroke="#373435" stroke-width="6.94" stroke-miterlimit="2.61313" d="M9133.92 1919.62l94.78 32.63 21.91 -62.64c-18.05,-6.4 -68.69,-33.38 -74.24,-34.5 -18.62,-3.76 -28.69,31.8 -42.44,64.51z"/>
  <path fill="#FDFDFD" stroke="#373435" stroke-width="6.94" stroke-miterlimit="2.61313" d="M9281.36 1901.33c-0.46,16.51 -12.51,44.93 -18.56,62.5l95.76 33.13 15.42 -74.83 -92.63 -20.8z"/>
  <path fill="#FDFDFD" stroke="#373435" stroke-width="6.94" stroke-miterlimit="2.61313" d="M9016.72 2029.53c17.89,-2.55 35.07,-2.17 55.47,-0.94 5.72,-29.76 11.41,-61.45 16.65,-86.41l-69.58 -24.13c-12.47,42.87 -8.62,78.61 -2.54,111.47z"/>
  <path fill="#FDFDFD" stroke="#373435" stroke-width="6.94" stroke-miterlimit="2.61313" d="M9372.9 2056.97l-32.74 63.9c18.39,14.17 28.83,20.9 43.78,35.1 22.49,-31.91 46.63,-40.7 65.92,-89.63l-71.67 -24.68 -5.3 15.31z"/>
  <path fill="#FDFDFD" stroke="#373435" stroke-width="6.94" stroke-miterlimit="2.61313" d="M9030.93 1884.16l72.38 24.95c1.56,-15.31 25.35,-62.26 36.54,-77.5l-44.08 -31.31c-28.33,16.32 -49.53,47.29 -64.85,83.85z"/>
  <path fill="#00A859" stroke="#373435" stroke-width="6.94" stroke-miterlimit="2.61313" d="M8716.38 558.75c45.99,-133.57 255.36,-67.34 206.02,75.94 -45.41,131.88 -255.88,68.86 -206.02,-75.94zm142.51 161.74c3.37,-23.56 102.8,-45.5 76.46,-152.53 -14.28,-58.02 -80.35,-109.53 -151.31,-85.23 -136.5,46.74 -93.06,234.08 35.49,233.93 36.02,-0.04 19.54,-12.5 39.35,3.83z"/>
  <path fill="#FDFDFD" stroke="#373435" stroke-width="6.94" stroke-miterlimit="2.61313" d="M9408.66 1924c-4.94,27.92 -7.44,57.5 -18.62,83.64l71.51 24.75c12.26,-37.21 6.97,-81.19 2.58,-109.33 -15.9,2.45 -34,4.39 -55.47,0.94z"/>
  <path fill="#FDFDFD" stroke="#373435" stroke-width="6.94" stroke-miterlimit="2.61313" d="M9296.26 1867.41l77.06 20.2c4.94,-46.35 -12.47,-100.75 -45.47,-121.65l-31.59 101.45z"/>
  <path fill="#FDFDFD" stroke="#373435" stroke-width="6.94" stroke-miterlimit="2.61313" d="M9187.99 1823.04l73.78 33.04 35.04 -100.65c-44.37,2.56 -80.33,29.52 -108.82,67.61z"/>
  <path fill="#FDFDFD" stroke="#373435" stroke-width="6.94" stroke-miterlimit="2.61313" d="M9107.46 2065.88c-6.69,39.32 11.56,97.67 42.48,115.48l33.87 -96.44c-22.28,-4.63 -56.35,-12.6 -76.35,-19.04z"/>
  <path fill="#FDFDFD" stroke="#373435" stroke-width="6.94" stroke-miterlimit="2.61313" d="M9183.93 2192.9c38.78,4.4 83.24,-28.5 105.08,-64.48l-72.43 -30.75 -32.65 95.24z"/>
  <path fill="#FDFDFD" stroke="#373435" stroke-width="6.94" stroke-miterlimit="2.61313" d="M8786.84 532.11c-4.75,20.9 -1.92,55.12 4.46,71.98 13.71,3.36 48.83,-3.22 59.5,-7.13 6.05,-10.04 14.39,-58.06 3.88,-67.33 -9.74,-8.58 -57.72,-0.81 -67.84,2.47z"/>
  <path fill="#FDFDFD" stroke="#373435" stroke-width="6.94" stroke-miterlimit="2.61313" d="M10109.91 2246.32c-17.6,12.75 -51.52,46.88 -58.35,65.65l39.94 12.99c-2.99,10.63 -7.96,18.02 -3.79,26.36 0,0 -3.13,9.13 10.76,3.31l27.98 -28.19c-1.33,-34.59 5.54,27.07 -3.07,-9.4 -0.2,-0.84 -0.69,-2.21 -0.84,-3.11 -0.15,-0.91 -0.5,-2.24 -0.57,-3.19 -0.59,-8 0.24,-9.13 3.51,-19.18 4.91,-15.03 11.31,-31.09 16.56,-46.31 -25.17,-8.19 -16.31,-10.4 -32.14,1.07z"/>
  <path fill="#FDFDFD" stroke="#373435" stroke-width="6.94" stroke-miterlimit="2.61313" d="M10037.68 2335.06c0.05,-0.02 9.66,16.24 7.83,-8.95 -0.67,-9.15 8,-3.07 -32.05,-19.09 16.94,-11.6 49.47,-23.87 57.01,-54.1 8.11,-32.55 -30.71,-59.82 -51.24,-38.53 1.1,23.75 -5.12,4.56 12.74,13.67 6.19,3.16 31.09,10.67 2.95,39.08 -23.33,23.56 -43.47,19.45 -55.66,51.2 11.15,3.84 49.09,19.1 58.43,16.72z"/>
  <path fill="#FDFDFD" stroke="#373435" stroke-width="6.94" stroke-miterlimit="2.61313" d="M8553.1 2345.69c-6.3,18.28 3.69,40.14 12.11,49.33 20.28,22.13 33.7,11.15 49.56,1.95 -15.32,-19.85 -31.93,-20.71 -31.11,-67.76 -11.22,1.46 -25.77,2.56 -30.56,16.48z"/>
 </g>
</svg>
